<svg width="22" height="23" viewBox="0 0 22 23" fill="none" xmlns="http://www.w3.org/2000/svg">
<path d="M19.007 18.894V9.85386H17.1236C17.3096 10.4398 17.4026 11.049 17.4026 11.6814C17.4026 12.8533 17.105 13.9345 16.5098 14.925C15.9145 15.9155 15.1054 16.6991 14.0823 17.2757C13.0592 17.8524 11.9432 18.1407 10.7341 18.1407C8.90188 18.1407 7.33473 17.5106 6.03265 16.2503C4.73056 14.9901 4.07952 13.4671 4.07952 11.6814C4.07952 11.049 4.17253 10.4398 4.35854 9.85386H2.39146V18.894C2.39146 19.1359 2.47284 19.3381 2.6356 19.5009C2.79836 19.6637 3.00065 19.745 3.24247 19.745H18.156C18.3885 19.745 18.5884 19.6637 18.7559 19.5009C18.9233 19.3381 19.007 19.1359 19.007 18.894ZM13.7824 14.4088C13.7824 14.4088 13.9928 14.2054 14.4136 13.7985C14.8345 13.3916 15.0449 12.6115 15.0449 11.4582C15.0449 10.3049 14.6241 9.32141 13.7824 8.5076C12.9407 7.6938 11.9246 7.2869 10.7341 7.2869C9.55292 7.2869 8.54148 7.6938 7.69978 8.5076C6.85807 9.32141 6.43722 10.3049 6.43722 11.4582C6.43722 12.6115 6.85807 13.595 7.69978 14.4088C8.54148 15.2226 9.55292 15.6295 10.7341 15.6295C11.9246 15.6295 12.9407 15.2226 13.7824 14.4088ZM19.007 6.4359V4.134C19.007 3.87358 18.914 3.64804 18.728 3.45738C18.5419 3.26672 18.3141 3.17139 18.0444 3.17139H15.6169C15.3472 3.17139 15.1193 3.26672 14.9333 3.45738C14.7473 3.64804 14.6543 3.87358 14.6543 4.134V6.4359C14.6543 6.70561 14.7473 6.93348 14.9333 7.11949C15.1193 7.3055 15.3472 7.39851 15.6169 7.39851H18.0444C18.3141 7.39851 18.5419 7.3055 18.728 7.11949C18.914 6.93348 19.007 6.70561 19.007 6.4359ZM21.4344 3.53411V19.466C21.4344 20.2194 21.1647 20.8658 20.6253 21.4052C20.0858 21.9446 19.4395 22.2144 18.6861 22.2144H2.75419C2.00084 22.2144 1.35445 21.9446 0.815011 21.4052C0.275577 20.8658 0.00585938 20.2194 0.00585938 19.466V3.53411C0.00585938 2.78076 0.275577 2.13437 0.815011 1.59494C1.35445 1.0555 2.00084 0.785784 2.75419 0.785784H18.6861C19.4395 0.785784 20.0858 1.0555 20.6253 1.59494C21.1647 2.13437 21.4344 2.78076 21.4344 3.53411Z" fill="#FF7300"/>
</svg>
