<svg width="41" height="24" viewBox="0 0 41 24" fill="none" xmlns="http://www.w3.org/2000/svg">
<path d="M37.9294 6.10352e-05H3.0706C1.3747 6.10352e-05 0 1.18031 0 2.63632V20.4262C0 21.8822 1.3747 23.0625 3.0706 23.0625H37.9294C39.6252 23.0625 41 21.8822 41 20.4262V2.63632C41 1.18031 39.6253 6.10352e-05 37.9294 6.10352e-05Z" fill="#41479B"/>
<path d="M40.9575 2.20051C40.7155 0.952063 39.4523 0 37.9294 0H37.1305L24.0345 7.36646V6.87132e-05H16.9655V7.36653L3.86953 6.87132e-05H3.0706C1.54775 6.87132e-05 0.284518 0.952063 0.0425215 2.20058L11.2357 8.49679H0V14.5658H11.2357L0.0425215 20.8619C0.284518 22.1104 1.54775 23.0624 3.0706 23.0624H3.86953L16.9655 15.696V23.0624H24.0345V15.696L37.1305 23.0624H37.9294C39.4523 23.0624 40.7155 22.1104 40.9575 20.8619L29.7643 14.5657H41V8.49665H29.7643L40.9575 2.20051Z" fill="#F5F5F5"/>
<path d="M22.6207 6.10352e-05H18.3793V9.71051H0V13.352H18.3793V23.0624H22.6207V13.352H41V9.71051H22.6207V6.10352e-05Z" fill="#FF4B55"/>
<path d="M1.98548 22.8925L16.9267 14.5658H14.3299L0.738745 22.1402C1.07421 22.4769 1.50296 22.7356 1.98548 22.8925ZM27.7382 14.5658H25.1414L39.6128 22.6306C40.0186 22.4017 40.3558 22.0937 40.5967 21.7317L27.7382 14.5658ZM0.324341 1.45756L12.9551 8.49676H15.5518L1.23931 0.520279C0.853283 0.767101 0.539929 1.0881 0.324341 1.45756ZM26.6314 8.49676L40.2474 0.908378C39.9083 0.572617 39.4759 0.315804 38.9903 0.161743L24.0346 8.49676H26.6314Z" fill="#FF4B55"/>
</svg>
