<svg width="27" height="24" viewBox="0 0 27 24" fill="none" xmlns="http://www.w3.org/2000/svg">
<path d="M13.5006 2.07803C12.0802 0.741719 10.2211 6.20921e-05 8.29154 0C7.27026 0.00108797 6.25926 0.208816 5.31674 0.611228C4.37421 1.01364 3.51877 1.60279 2.79964 2.34478C-0.267634 5.4965 -0.26633 10.4261 2.80225 13.5645L12.36 23.3438C12.5816 23.7426 13.0091 24 13.5006 24C13.7024 23.998 13.9009 23.9476 14.0802 23.8529C14.2595 23.7581 14.4146 23.6217 14.533 23.4545L24.1989 13.5645C27.2675 10.4248 27.2675 5.4965 24.1963 2.33945C23.4775 1.59882 22.6228 1.01087 21.6812 0.609381C20.7396 0.207896 19.7297 0.000799742 18.7096 0C16.7801 0.00032272 14.9211 0.741944 13.5006 2.07803ZM22.353 4.22541C24.3905 6.32077 24.3918 9.59387 22.3557 11.6786L13.5006 20.7389L4.64548 11.6786C2.60932 9.59387 2.61063 6.32077 4.64288 4.23074C5.63358 3.22241 6.92932 2.66756 8.29154 2.66756C9.65376 2.66756 10.9443 3.22241 11.9272 4.22808L12.579 4.89496C12.6999 5.01893 12.8436 5.11728 13.0017 5.18439C13.1598 5.25149 13.3294 5.28603 13.5006 5.28603C13.6718 5.28603 13.8413 5.25149 13.9994 5.18439C14.1576 5.11728 14.3012 5.01893 14.4222 4.89496L15.074 4.22808C17.045 2.2154 20.3847 2.22074 22.353 4.22541Z" fill="black"/>
</svg>
