<svg width="23" height="27" viewBox="0 0 23 27" fill="none" xmlns="http://www.w3.org/2000/svg">
<path d="M1.5 22C1.5 19.8783 2.02678 17.8434 2.96447 16.3431C3.90215 14.8429 5.17392 14 6.5 14H16.5C17.8261 14 19.0979 14.8429 20.0355 16.3431C20.9732 17.8434 21.5 19.8783 21.5 22C21.5 23.0609 21.2366 24.0783 20.7678 24.8284C20.2989 25.5786 19.663 26 19 26H4C3.33696 26 2.70107 25.5786 2.23223 24.8284C1.76339 24.0783 1.5 23.0609 1.5 22Z" stroke="black" stroke-width="2" stroke-linejoin="round"/>
<path d="M11.25 10C13.7353 10 15.75 7.98528 15.75 5.5C15.75 3.01472 13.7353 1 11.25 1C8.76472 1 6.75 3.01472 6.75 5.5C6.75 7.98528 8.76472 10 11.25 10Z" stroke="black" stroke-width="2"/>
</svg>
