<svg width="99" height="99" viewBox="0 0 99 99" fill="none" xmlns="http://www.w3.org/2000/svg">
<g clip-path="url(#clip0_3156_1504)">
<g filter="url(#filter0_dd_3156_1504)">
<path fill-rule="evenodd" clip-rule="evenodd" d="M3.28174 48.1303V15.6631C3.28174 8.85036 8.84987 3.28223 15.6626 3.28223H80.6025C87.4098 3.28223 92.9834 8.85036 92.9834 15.6631V80.603C92.9834 87.4103 87.4153 92.9839 80.6025 92.9839H48.1353C23.4656 92.9785 3.28174 72.7946 3.28174 48.1303Z" fill="#FF7300"/>
</g>
<g filter="url(#filter1_ii_3156_1504)">
<path fill-rule="evenodd" clip-rule="evenodd" d="M46.0142 24.6133H50.8502C51.7174 24.6133 52.5048 24.9698 53.0793 25.5391C53.6486 26.1084 54.005 26.9012 54.005 27.7632V33.2169C54.005 34.0842 53.6486 34.8717 53.0793 35.4463C52.5101 36.0156 51.7174 36.3721 50.8502 36.3721H45.397C44.5299 36.3721 43.7425 36.0156 43.1679 35.4463C42.5986 34.877 42.2422 34.0842 42.2422 33.2169V27.7632C42.2422 26.8959 42.5986 26.1084 43.1679 25.5391C43.7425 24.9644 44.5299 24.6133 45.397 24.6133H46.0089H46.0142ZM63.6505 24.6133H68.4918C69.359 24.6133 70.1464 24.9698 70.7209 25.5391C71.2902 26.1084 71.6466 26.9012 71.6466 27.7632V33.2169C71.6466 34.0842 71.2902 34.8717 70.7209 35.4463C70.1464 36.0156 69.359 36.3721 68.4918 36.3721H63.0386C62.1715 36.3721 61.3841 36.0156 60.8095 35.4463C60.2402 34.877 59.8838 34.0842 59.8838 33.2169V27.7632C59.8838 26.8959 60.2402 26.1084 60.8095 25.5391C61.3788 24.9644 62.1715 24.6133 63.0386 24.6133H63.6505ZM54.005 63.045V69.4778C54.005 71.2869 51.5631 72.5319 49.9085 70.8772L46.4664 67.4346L43.0243 63.9921C41.3697 62.3374 42.6146 59.8951 44.4235 59.8951H50.8555C51.7227 59.8951 52.5101 60.2516 53.0847 60.821C53.6539 61.3903 54.0104 62.1831 54.0104 63.0503L54.005 63.045ZM54.005 45.4068V51.8395C54.005 53.6486 51.5631 54.8936 49.9085 53.2389L46.4664 49.7964L43.0243 46.3538C41.3697 44.6991 42.6146 42.2569 44.4235 42.2569H50.8555C51.7227 42.2569 52.5101 42.6134 53.0847 43.1827C53.6539 43.752 54.0104 44.5448 54.0104 45.4068H54.005ZM71.6413 63.045V69.4778C71.6413 71.2869 69.1994 72.5319 67.5448 70.8772L64.1027 67.4346L60.6605 63.9921C59.006 62.3374 60.2509 59.8951 62.0597 59.8951H68.4918C69.359 59.8951 70.1464 60.2516 70.7209 60.821C71.2902 61.3903 71.6466 62.1831 71.6466 63.0503L71.6413 63.045ZM36.3688 27.7632V34.1959C36.3688 36.005 33.9268 37.2501 32.2722 35.5953L28.8301 32.1528L25.388 28.7103C23.7334 27.0555 24.9783 24.6133 26.7872 24.6133H33.2192C34.0864 24.6133 34.8738 24.9698 35.4484 25.5391C36.0176 26.1084 36.3741 26.9012 36.3741 27.7685L36.3688 27.7632ZM63.6558 42.2516H68.4971C69.3643 42.2516 70.1517 42.608 70.7262 43.1774C71.2955 43.7467 71.652 44.5395 71.652 45.4068V50.8605C71.652 51.7278 71.2955 52.5153 70.7262 53.0846C70.1517 53.6539 69.3643 54.0104 68.4971 54.0104H63.044C62.1768 54.0104 61.3894 53.6539 60.8148 53.0846C60.2456 52.5153 59.8891 51.7225 59.8891 50.8605V45.4068C59.8891 44.5395 60.2456 43.752 60.8148 43.1774C61.3841 42.6027 62.1768 42.2516 63.044 42.2516H63.6558ZM31.8573 62.8322H28.6386C27.7342 62.8322 27.1117 64.056 27.9416 64.8807L29.6654 66.6046L31.3891 68.3285C32.2137 69.1532 33.4374 68.5307 33.4374 67.6262V64.4125C33.4374 63.9815 33.2618 63.5824 32.9745 63.3004C32.6872 63.0131 32.2935 62.8375 31.8626 62.8375L31.8573 62.8322ZM36.3741 45.4068V51.8395C36.3741 53.6486 33.9321 54.8936 32.2776 53.2389L28.8354 49.7964L25.3933 46.3538C23.7387 44.6991 24.9836 42.2569 26.7925 42.2569H33.2246C34.0917 42.2569 34.8791 42.6134 35.4537 43.1827C36.023 43.752 36.3794 44.5448 36.3794 45.4121L36.3741 45.4068Z" fill="white"/>
</g>
</g>
<defs>
<filter id="filter0_dd_3156_1504" x="-4.71826" y="-4.71777" width="106.702" height="106.701" filterUnits="userSpaceOnUse" color-interpolation-filters="sRGB">
<feFlood flood-opacity="0" result="BackgroundImageFix"/>
<feColorMatrix in="SourceAlpha" type="matrix" values="0 0 0 0 0 0 0 0 0 0 0 0 0 0 0 0 0 0 127 0" result="hardAlpha"/>
<feOffset dx="-4" dy="-4"/>
<feGaussianBlur stdDeviation="2"/>
<feComposite in2="hardAlpha" operator="out"/>
<feColorMatrix type="matrix" values="0 0 0 0 1 0 0 0 0 1 0 0 0 0 1 0 0 0 0.7 0"/>
<feBlend mode="normal" in2="BackgroundImageFix" result="effect1_dropShadow_3156_1504"/>
<feColorMatrix in="SourceAlpha" type="matrix" values="0 0 0 0 0 0 0 0 0 0 0 0 0 0 0 0 0 0 127 0" result="hardAlpha"/>
<feOffset dx="5" dy="5"/>
<feGaussianBlur stdDeviation="2"/>
<feComposite in2="hardAlpha" operator="out"/>
<feColorMatrix type="matrix" values="0 0 0 0 0 0 0 0 0 0 0 0 0 0 0 0 0 0 0.15 0"/>
<feBlend mode="normal" in2="effect1_dropShadow_3156_1504" result="effect2_dropShadow_3156_1504"/>
<feBlend mode="normal" in="SourceGraphic" in2="effect2_dropShadow_3156_1504" result="shape"/>
</filter>
<filter id="filter1_ii_3156_1504" x="24.6133" y="24.6133" width="51.0386" height="51.0391" filterUnits="userSpaceOnUse" color-interpolation-filters="sRGB">
<feFlood flood-opacity="0" result="BackgroundImageFix"/>
<feBlend mode="normal" in="SourceGraphic" in2="BackgroundImageFix" result="shape"/>
<feColorMatrix in="SourceAlpha" type="matrix" values="0 0 0 0 0 0 0 0 0 0 0 0 0 0 0 0 0 0 127 0" result="hardAlpha"/>
<feOffset dy="4"/>
<feGaussianBlur stdDeviation="2"/>
<feComposite in2="hardAlpha" operator="arithmetic" k2="-1" k3="1"/>
<feColorMatrix type="matrix" values="0 0 0 0 0 0 0 0 0 0 0 0 0 0 0 0 0 0 0.25 0"/>
<feBlend mode="normal" in2="shape" result="effect1_innerShadow_3156_1504"/>
<feColorMatrix in="SourceAlpha" type="matrix" values="0 0 0 0 0 0 0 0 0 0 0 0 0 0 0 0 0 0 127 0" result="hardAlpha"/>
<feOffset dx="4" dy="4"/>
<feGaussianBlur stdDeviation="9"/>
<feComposite in2="hardAlpha" operator="arithmetic" k2="-1" k3="1"/>
<feColorMatrix type="matrix" values="0 0 0 0 0 0 0 0 0 0 0 0 0 0 0 0 0 0 0.15 0"/>
<feBlend mode="normal" in2="effect1_innerShadow_3156_1504" result="effect2_innerShadow_3156_1504"/>
</filter>
<clipPath id="clip0_3156_1504">
<rect width="99" height="99" fill="white"/>
</clipPath>
</defs>
</svg>
