<svg width="30" height="30" viewBox="0 0 30 30" fill="none" xmlns="http://www.w3.org/2000/svg">
<path d="M9.12332 10H21.8797C22.2041 9.99996 22.5247 10.0701 22.8195 10.2055C23.1142 10.341 23.3762 10.5386 23.5875 10.7848C23.7988 11.031 23.9543 11.32 24.0434 11.6319C24.1325 11.9438 24.1531 12.2714 24.1038 12.592L22.6919 21.763C22.5694 22.56 22.1655 23.2868 21.5534 23.8118C20.9414 24.3367 20.1616 24.6252 19.3552 24.625H11.6467C10.8405 24.625 10.061 24.3364 9.44915 23.8114C8.83732 23.2864 8.4336 22.5598 8.31107 21.763L6.89919 12.592C6.84988 12.2714 6.87049 11.9438 6.95961 11.6319C7.04873 11.32 7.20425 11.031 7.4155 10.7848C7.62676 10.5386 7.88876 10.341 8.18354 10.2055C8.47832 10.0701 8.7989 9.99996 9.12332 10Z" stroke="black" stroke-width="2" stroke-linecap="round" stroke-linejoin="round"/>
<path d="M12.125 13.375V7.75C12.125 6.85489 12.4806 5.99645 13.1135 5.36351C13.7464 4.73058 14.6049 4.375 15.5 4.375C16.3951 4.375 17.2536 4.73058 17.8865 5.36351C18.5194 5.99645 18.875 6.85489 18.875 7.75V13.375" stroke="black" stroke-width="2" stroke-linecap="round" stroke-linejoin="round"/>
</svg>
