<svg width="30" height="30" viewBox="0 0 30 30" fill="none" xmlns="http://www.w3.org/2000/svg">
<path d="M7.16602 21.1667C7.16602 19.3986 7.605 17.7029 8.3864 16.4526C9.16781 15.2024 10.2276 14.5 11.3327 14.5H19.666C20.7711 14.5 21.8309 15.2024 22.6123 16.4526C23.3937 17.7029 23.8327 19.3986 23.8327 21.1667C23.8327 22.0507 23.6132 22.8986 23.2225 23.5237C22.8318 24.1488 22.3019 24.5 21.7493 24.5H9.24935C8.69681 24.5 8.16691 24.1488 7.77621 23.5237C7.38551 22.8986 7.16602 22.0507 7.16602 21.1667Z" stroke="black" stroke-width="2" stroke-linejoin="round"/>
<path d="M15.291 11.1666C17.3621 11.1666 19.041 9.48769 19.041 7.41663C19.041 5.34556 17.3621 3.66663 15.291 3.66663C13.2199 3.66663 11.541 5.34556 11.541 7.41663C11.541 9.48769 13.2199 11.1666 15.291 11.1666Z" stroke="black" stroke-width="2"/>
</svg>
