<svg width="30" height="30" viewBox="0 0 30 30" fill="none" xmlns="http://www.w3.org/2000/svg">
<g clip-path="url(#clip0_788_44)">
<path d="M14.9996 5.74376C13.6376 4.49139 11.8549 3.79632 10.0046 3.79626C9.02528 3.79728 8.05583 3.99196 7.15203 4.3691C6.24823 4.74624 5.42794 5.29838 4.73836 5.99376C1.79711 8.94751 1.79836 13.5675 4.74086 16.5088L13.9059 25.6738C14.1184 26.0475 14.5284 26.2888 14.9996 26.2888C15.1931 26.2869 15.3835 26.2397 15.5554 26.1509C15.7273 26.0621 15.8761 25.9342 15.9896 25.7775L25.2584 16.5088C28.2009 13.5663 28.2009 8.94751 25.2559 5.98876C24.5666 5.29466 23.747 4.74364 22.8441 4.36737C21.9412 3.9911 20.9728 3.79701 19.9946 3.79626C18.1444 3.79657 16.3617 4.49161 14.9996 5.74376ZM23.4884 7.75626C25.4421 9.72001 25.4434 12.7875 23.4909 14.7413L14.9996 23.2325L6.50836 14.7413C4.55586 12.7875 4.55711 9.72002 6.50586 7.76126C7.45586 6.81626 8.69836 6.29626 10.0046 6.29626C11.3109 6.29626 12.5484 6.81626 13.4909 7.75876L14.1159 8.38376C14.2318 8.49995 14.3696 8.59212 14.5212 8.65501C14.6729 8.7179 14.8354 8.75027 14.9996 8.75027C15.1638 8.75027 15.3263 8.7179 15.478 8.65501C15.6296 8.59212 15.7674 8.49995 15.8834 8.38376L16.5084 7.75876C18.3984 5.87251 21.6009 5.87751 23.4884 7.75626Z" fill="black"/>
</g>
<defs>
<clipPath id="clip0_788_44">
<rect width="30" height="30" fill="white"/>
</clipPath>
</defs>
</svg>
