<svg width="31" height="30" viewBox="0 0 31 30" fill="none" xmlns="http://www.w3.org/2000/svg">
<path fill-rule="evenodd" clip-rule="evenodd" d="M15.5 28C17.2728 28 19.0283 27.6637 20.6662 27.0104C22.3041 26.3571 23.7923 25.3995 25.0459 24.1924C26.2995 22.9852 27.2939 21.5521 27.9724 19.9749C28.6508 18.3977 29 16.7072 29 15C29 13.2928 28.6508 11.6023 27.9724 10.0251C27.2939 8.44788 26.2995 7.01477 25.0459 5.80761C23.7923 4.60045 22.3041 3.64288 20.6662 2.98957C19.0283 2.33625 17.2728 2 15.5 2C11.9196 2 8.4858 3.36964 5.95406 5.80761C3.42232 8.24558 2 11.5522 2 15C2 18.4478 3.42232 21.7544 5.95406 24.1924C8.4858 26.6304 11.9196 28 15.5 28ZM15.152 20.2578L22.652 11.5911L20.348 9.74222L13.898 17.1941L10.5605 13.9788L8.4395 16.0212L12.9395 20.3546L14.1005 21.4726L15.152 20.2578Z" fill="#FF7300"/>
</svg>
