<svg width="31" height="31" viewBox="0 0 31 31" fill="none" xmlns="http://www.w3.org/2000/svg">
<path d="M12.0035 23.7202L4.6965 16.4132C4.45435 16.171 4.31832 15.8425 4.31832 15.5C4.31832 15.1575 4.45435 14.829 4.6965 14.5868L12.0035 7.27984C12.2471 7.04455 12.5733 6.91436 12.912 6.9173C13.2507 6.92025 13.5747 7.05609 13.8141 7.29557C14.0536 7.53506 14.1895 7.85903 14.1924 8.1977C14.1954 8.53637 14.0652 8.86264 13.8299 9.10625L8.72779 14.2083L25.8333 14.2083C26.1759 14.2083 26.5044 14.3444 26.7467 14.5867C26.9889 14.8289 27.125 15.1574 27.125 15.5C27.125 15.8426 26.9889 16.1711 26.7467 16.4134C26.5044 16.6556 26.1759 16.7917 25.8333 16.7917L8.72779 16.7917L13.8299 21.8938C13.9532 22.0129 14.0516 22.1554 14.1193 22.313C14.187 22.4706 14.2227 22.6401 14.2242 22.8116C14.2256 22.9831 14.193 23.1532 14.128 23.3119C14.0631 23.4707 13.9672 23.6149 13.8459 23.7362C13.7246 23.8575 13.5804 23.9534 13.4216 24.0183C13.2629 24.0833 13.0928 24.1159 12.9213 24.1145C12.7498 24.113 12.5803 24.0773 12.4227 24.0096C12.2651 23.9419 12.1226 23.8435 12.0035 23.7202Z" fill="#FF7300"/>
</svg>
