<svg width="34" height="34" viewBox="0 0 34 34" fill="none" xmlns="http://www.w3.org/2000/svg">
<path d="M23.1875 22.6719C23.1875 22.9778 23.0968 23.2769 22.9268 23.5313C22.7568 23.7857 22.5152 23.9839 22.2326 24.101C21.9499 24.2181 21.6389 24.2487 21.3388 24.189C21.0388 24.1293 20.7632 23.982 20.5468 23.7657C20.3305 23.5493 20.1832 23.2737 20.1235 22.9737C20.0638 22.6736 20.0944 22.3626 20.2115 22.0799C20.3286 21.7973 20.5268 21.5557 20.7812 21.3857C21.0356 21.2157 21.3347 21.125 21.6406 21.125C22.0509 21.125 22.4443 21.288 22.7344 21.5781C23.0245 21.8682 23.1875 22.2616 23.1875 22.6719ZM12.3594 12.875C12.6653 12.875 12.9644 12.7843 13.2188 12.6143C13.4732 12.4443 13.6714 12.2027 13.7885 11.9201C13.9056 11.6374 13.9362 11.3264 13.8765 11.0263C13.8168 10.7263 13.6695 10.4507 13.4532 10.2343C13.2368 10.018 12.9612 9.87066 12.6612 9.81097C12.3611 9.75129 12.0501 9.78192 11.7674 9.899C11.4848 10.0161 11.2432 10.2143 11.0732 10.4687C10.9032 10.7231 10.8125 11.0222 10.8125 11.3281C10.8125 11.7384 10.9755 12.1318 11.2656 12.4219C11.5557 12.712 11.9491 12.875 12.3594 12.875ZM29.375 6.6875V27.3125C29.375 27.8595 29.1577 28.3841 28.7709 28.7709C28.3841 29.1577 27.8595 29.375 27.3125 29.375H6.6875C6.14049 29.375 5.61589 29.1577 5.22909 28.7709C4.8423 28.3841 4.625 27.8595 4.625 27.3125V6.6875C4.625 6.14049 4.8423 5.61589 5.22909 5.22909C5.61589 4.8423 6.14049 4.625 6.6875 4.625H27.3125C27.8595 4.625 28.3841 4.8423 28.7709 5.22909C29.1577 5.61589 29.375 6.14049 29.375 6.6875ZM8.75 11.3281C8.75 12.042 8.96169 12.7398 9.35829 13.3334C9.75489 13.9269 10.3186 14.3896 10.9781 14.6628C11.6377 14.9359 12.3634 15.0074 13.0635 14.8681C13.7637 14.7289 14.4068 14.3851 14.9116 13.8803C15.4164 13.3756 15.7601 12.7324 15.8994 12.0323C16.0387 11.3321 15.9672 10.6064 15.694 9.94688C15.4208 9.28735 14.9582 8.72364 14.3646 8.32704C13.7711 7.93044 13.0732 7.71875 12.3594 7.71875C11.4021 7.71875 10.4841 8.09902 9.80716 8.77591C9.13027 9.4528 8.75 10.3709 8.75 11.3281ZM25.25 22.6719C25.25 21.958 25.0383 21.2602 24.6417 20.6666C24.2451 20.0731 23.6814 19.6104 23.0219 19.3372C22.3623 19.0641 21.6366 18.9926 20.9365 19.1319C20.2363 19.2711 19.5932 19.6149 19.0884 20.1197C18.5836 20.6244 18.2399 21.2676 18.1006 21.9677C17.9613 22.6679 18.0328 23.3936 18.306 24.0531C18.5792 24.7127 19.0418 25.2764 19.6354 25.673C20.2289 26.0696 20.9268 26.2812 21.6406 26.2812C22.5979 26.2812 23.516 25.901 24.1928 25.2241C24.8697 24.5472 25.25 23.6291 25.25 22.6719ZM24.9484 9.05164C24.8526 8.95576 24.7388 8.87969 24.6137 8.8278C24.4885 8.7759 24.3543 8.74919 24.2188 8.74919C24.0832 8.74919 23.949 8.7759 23.8238 8.8278C23.6987 8.87969 23.5849 8.95576 23.4891 9.05164L9.05164 23.4891C8.85814 23.6826 8.74943 23.9451 8.74943 24.2188C8.74943 24.4924 8.85814 24.7549 9.05164 24.9484C9.24514 25.1419 9.50759 25.2506 9.78125 25.2506C10.0549 25.2506 10.3174 25.1419 10.5109 24.9484L24.9484 10.5109C25.0442 10.4151 25.1203 10.3013 25.1722 10.1762C25.2241 10.051 25.2508 9.91677 25.2508 9.78125C25.2508 9.64573 25.2241 9.51153 25.1722 9.38634C25.1203 9.26115 25.0442 9.14742 24.9484 9.05164Z" fill="#FF7300"/>
</svg>
