<svg width="26" height="24" viewBox="0 0 26 24" fill="none" xmlns="http://www.w3.org/2000/svg">
<path d="M24.5625 12H9.11875M3.6675 12H1.4375M3.6675 12C3.6675 11.2773 3.9546 10.5842 4.46563 10.0731C4.97667 9.56208 5.66979 9.27498 6.3925 9.27498C7.11522 9.27498 7.80833 9.56208 8.31937 10.0731C8.8304 10.5842 9.1175 11.2773 9.1175 12C9.1175 12.7227 8.8304 13.4158 8.31937 13.9269C7.80833 14.4379 7.11522 14.725 6.3925 14.725C5.66979 14.725 4.97667 14.4379 4.46563 13.9269C3.9546 13.4158 3.6675 12.7227 3.6675 12ZM24.5625 20.2587H17.3775M17.3775 20.2587C17.3775 20.9816 17.0897 21.6755 16.5786 22.1867C16.0674 22.6978 15.3741 22.985 14.6513 22.985C13.9285 22.985 13.2354 22.6966 12.7244 22.1856C12.2133 21.6746 11.9262 20.9815 11.9262 20.2587M17.3775 20.2587C17.3775 19.5359 17.0897 18.8432 16.5786 18.3321C16.0674 17.8209 15.3741 17.5337 14.6513 17.5337C13.9285 17.5337 13.2354 17.8208 12.7244 18.3319C12.2133 18.8429 11.9262 19.536 11.9262 20.2587M11.9262 20.2587H1.4375M24.5625 3.74124H20.6813M15.23 3.74124H1.4375M15.23 3.74124C15.23 3.01852 15.5171 2.32541 16.0281 1.81437C16.5392 1.30333 17.2323 1.01624 17.955 1.01624C18.3129 1.01624 18.6672 1.08672 18.9978 1.22366C19.3284 1.36061 19.6288 1.56133 19.8819 1.81437C20.1349 2.06741 20.3356 2.36781 20.4726 2.69842C20.6095 3.02904 20.68 3.38338 20.68 3.74124C20.68 4.09909 20.6095 4.45344 20.4726 4.78405C20.3356 5.11466 20.1349 5.41506 19.8819 5.6681C19.6288 5.92114 19.3284 6.12186 18.9978 6.25881C18.6672 6.39575 18.3129 6.46623 17.955 6.46623C17.2323 6.46623 16.5392 6.17914 16.0281 5.6681C15.5171 5.15706 15.23 4.46395 15.23 3.74124Z" stroke="#525252" stroke-opacity="0.5" stroke-width="1.5" stroke-miterlimit="10" stroke-linecap="round"/>
</svg>
