<svg width="24" height="19" viewBox="0 0 24 19" fill="none" xmlns="http://www.w3.org/2000/svg">
<path d="M15.9965 1.27983L23.3035 8.58679C23.5457 8.82901 23.6817 9.15749 23.6817 9.5C23.6817 9.8425 23.5457 10.171 23.3035 10.4132L15.9965 17.7202C15.7529 17.9555 15.4267 18.0856 15.088 18.0827C14.7493 18.0798 14.4253 17.9439 14.1859 17.7044C13.9464 17.4649 13.8105 17.141 13.8076 16.8023C13.8046 16.4636 13.9348 16.1374 14.1701 15.8937L19.2722 10.7917H2.16667C1.8241 10.7917 1.49555 10.6556 1.25332 10.4133C1.01109 10.1711 0.875 9.84257 0.875 9.5C0.875 9.15742 1.01109 8.82888 1.25332 8.58665C1.49555 8.34441 1.8241 8.20833 2.16667 8.20833H19.2722L14.1701 3.10625C14.0468 2.98709 13.9484 2.84456 13.8807 2.68698C13.813 2.52939 13.7773 2.3599 13.7758 2.18839C13.7744 2.01688 13.807 1.8468 13.872 1.68805C13.9369 1.52931 14.0328 1.3851 14.1541 1.26382C14.2754 1.14254 14.4196 1.04663 14.5784 0.981684C14.7371 0.916738 14.9072 0.884056 15.0787 0.885547C15.2502 0.887037 15.4197 0.922669 15.5773 0.990364C15.7349 1.05806 15.8774 1.15646 15.9965 1.27983Z" fill="#FF7300"/>
</svg>
