<svg width="16" height="12" viewBox="0 0 16 12" fill="none" xmlns="http://www.w3.org/2000/svg">
<path fill-rule="evenodd" clip-rule="evenodd" d="M0.916585 0.166748C0.695572 0.166748 0.48361 0.254546 0.32733 0.410826C0.171049 0.567106 0.083252 0.779068 0.083252 1.00008C0.083252 1.2211 0.171049 1.43306 0.32733 1.58934C0.48361 1.74562 0.695572 1.83341 0.916585 1.83341H15.0833C15.3043 1.83341 15.5162 1.74562 15.6725 1.58934C15.8288 1.43306 15.9166 1.2211 15.9166 1.00008C15.9166 0.779068 15.8288 0.567106 15.6725 0.410826C15.5162 0.254546 15.3043 0.166748 15.0833 0.166748H0.916585ZM0.083252 6.00008C0.083252 5.77907 0.171049 5.56711 0.32733 5.41083C0.48361 5.25455 0.695572 5.16675 0.916585 5.16675H15.0833C15.3043 5.16675 15.5162 5.25455 15.6725 5.41083C15.8288 5.56711 15.9166 5.77907 15.9166 6.00008C15.9166 6.2211 15.8288 6.43306 15.6725 6.58934C15.5162 6.74562 15.3043 6.83341 15.0833 6.83341H0.916585C0.695572 6.83341 0.48361 6.74562 0.32733 6.58934C0.171049 6.43306 0.083252 6.2211 0.083252 6.00008ZM0.083252 11.0009C0.083252 10.7799 0.171049 10.5679 0.32733 10.4117C0.48361 10.2554 0.695572 10.1676 0.916585 10.1676H15.0833C15.3043 10.1676 15.5162 10.2554 15.6725 10.4117C15.8288 10.5679 15.9166 10.7799 15.9166 11.0009C15.9166 11.2219 15.8288 11.4339 15.6725 11.5902C15.5162 11.7465 15.3043 11.8342 15.0833 11.8342H0.916585C0.695572 11.8342 0.48361 11.7465 0.32733 11.5902C0.171049 11.4339 0.083252 11.2219 0.083252 11.0009Z" fill="#525252"/>
</svg>
