<svg width="21" height="36" viewBox="0 0 21 36" fill="none" xmlns="http://www.w3.org/2000/svg">
<path d="M20.0334 19.6584L4.40836 35.2834C3.96806 35.7237 3.37088 35.971 2.74821 35.971C2.12553 35.971 1.52835 35.7237 1.08805 35.2834C0.647749 34.8431 0.400391 34.2459 0.400391 33.6232C0.400391 33.0005 0.647749 32.4034 1.08805 31.963L15.0548 18.0002L1.09196 4.03336C0.873942 3.81535 0.701002 3.55653 0.583013 3.27168C0.465025 2.98683 0.404296 2.68153 0.404296 2.37321C0.404296 2.06489 0.465025 1.75959 0.583013 1.47474C0.701002 1.18989 0.873942 0.931065 1.09196 0.71305C1.30997 0.495035 1.56879 0.322096 1.85364 0.204108C2.13849 0.0861189 2.44379 0.0253906 2.75211 0.0253906C3.06043 0.0253906 3.36573 0.0861189 3.65058 0.204108C3.93543 0.322096 4.19425 0.495035 4.41227 0.71305L20.0373 16.338C20.2555 16.556 20.4286 16.815 20.5465 17.1C20.6645 17.385 20.725 17.6905 20.7247 17.999C20.7243 18.3075 20.663 18.6129 20.5444 18.8976C20.4258 19.1823 20.2521 19.4409 20.0334 19.6584Z" fill="#FF7300"/>
</svg>
