<svg width="21" height="36" viewBox="0 0 21 36" fill="none" xmlns="http://www.w3.org/2000/svg">
<path d="M0.96664 16.3416L16.5916 0.716636C17.0319 0.276336 17.6291 0.02898 18.2518 0.02898C18.8745 0.0289801 19.4717 0.276337 19.912 0.716637C20.3523 1.15694 20.5996 1.75412 20.5996 2.37679C20.5996 2.99947 20.3523 3.59665 19.912 4.03695L5.94516 17.9998L19.908 31.9666C20.1261 32.1847 20.299 32.4435 20.417 32.7283C20.535 33.0132 20.5957 33.3185 20.5957 33.6268C20.5957 33.9351 20.535 34.2404 20.417 34.5253C20.299 34.8101 20.1261 35.0689 19.908 35.2869C19.69 35.505 19.4312 35.6779 19.1464 35.7959C18.8615 35.9139 18.5562 35.9746 18.2479 35.9746C17.9396 35.9746 17.6343 35.9139 17.3494 35.7959C17.0646 35.6779 16.8057 35.505 16.5877 35.2869L0.962736 19.6619C0.744491 19.4439 0.571426 19.185 0.453468 18.9C0.335508 18.615 0.274976 18.3095 0.275339 18.001C0.275701 17.6925 0.336954 17.3871 0.455583 17.1024C0.574213 16.8177 0.747885 16.5591 0.96664 16.3416Z" fill="#FF7300"/>
</svg>
