<?xml version="1.0" standalone="no"?>
<!DOCTYPE svg PUBLIC "-//W3C//DTD SVG 20010904//EN"
 "http://www.w3.org/TR/2001/REC-SVG-20010904/DTD/svg10.dtd">
<svg version="1.0" xmlns="http://www.w3.org/2000/svg"
 width="99.000000pt" height="99.000000pt" viewBox="0 0 99.000000 99.000000"
 preserveAspectRatio="xMidYMid meet">
<metadata>
Created by potrace 1.14, written by Peter Selinger 2001-2017
</metadata>
<g transform="translate(0.000000,99.000000) scale(0.100000,-0.100000)"
fill="#000000" stroke="none">
<path d="M64 982 c3 -6 -3 -13 -14 -17 -11 -3 -20 -11 -20 -16 0 -6 -4 -7 -10
-4 -6 4 -7 -1 -3 -11 3 -10 2 -15 -3 -12 -5 4 -9 -31 -9 -82 -1 -49 3 -86 7
-84 5 3 5 11 2 17 -4 7 -3 9 1 4 14 -12 13 -46 -1 -40 -8 3 -11 -2 -9 -14 2
-10 4 -22 4 -26 1 -5 7 -5 13 -2 7 4 6 1 -2 -7 -16 -14 -24 -61 -9 -52 5 3 6
11 3 17 -4 7 -3 9 1 4 13 -11 13 -46 0 -41 -6 3 -11 -6 -11 -20 0 -17 4 -22
15 -19 14 4 14 3 1 -9 -18 -16 -22 -78 -5 -72 6 3 12 -2 12 -10 0 -8 -7 -12
-16 -9 -12 4 -12 1 2 -10 18 -15 18 -15 0 -20 -16 -4 -16 -5 0 -6 20 -1 22
-12 4 -30 -10 -11 -9 -13 5 -8 10 3 19 0 22 -10 5 -11 2 -14 -11 -9 -16 5 -16
5 1 -8 10 -8 15 -19 11 -25 -3 -6 -2 -11 4 -11 6 0 17 -15 26 -32 8 -18 27
-46 41 -63 14 -16 29 -35 32 -40 25 -38 165 -120 223 -130 18 -3 36 -8 41 -11
4 -3 104 -5 220 -4 182 0 216 3 238 18 14 9 28 15 32 14 5 -1 7 1 6 6 -1 4 4
20 11 37 9 21 12 125 12 377 -1 374 -2 387 -53 423 -13 8 -23 21 -23 28 -1 6
-7 11 -14 9 -7 -1 -21 3 -30 10 -14 11 -14 11 -4 -3 11 -13 9 -15 -7 -14 -11
1 -25 6 -32 13 -8 8 -15 7 -25 -6 -12 -14 -14 -14 -10 -1 3 11 -2 15 -19 15
-14 0 -23 -5 -20 -11 5 -13 -30 -13 -41 0 -5 4 -3 5 4 1 6 -3 14 -2 17 3 9 15
-38 7 -52 -9 -12 -13 -13 -13 -9 1 3 11 -2 15 -19 15 -14 0 -23 -5 -20 -11 5
-13 -30 -13 -41 0 -5 4 -3 5 4 1 6 -3 14 -2 17 3 9 15 -38 7 -52 -9 -12 -13
-13 -13 -9 1 3 11 -2 15 -19 15 -14 0 -23 -5 -20 -11 5 -13 -30 -13 -41 0 -5
4 -3 5 4 1 6 -3 14 -2 17 3 9 15 -38 7 -52 -9 -12 -13 -13 -13 -9 1 3 11 -2
15 -19 15 -14 0 -23 -5 -20 -11 5 -13 -30 -13 -41 0 -5 4 -3 5 4 1 6 -3 14 -2
17 3 9 15 -38 7 -52 -9 -12 -13 -13 -13 -9 1 3 11 -2 15 -19 15 -14 0 -23 -5
-20 -11 5 -13 -30 -13 -41 0 -5 4 -3 5 4 1 6 -3 14 -3 17 2 9 15 -98 8 -112
-8 -8 -8 -11 -10 -8 -3 4 6 1 15 -5 19 -7 4 -9 3 -5 -4z m76 -8 c0 -8 -19 -13
-24 -6 -3 5 1 9 9 9 8 0 15 -2 15 -3z m-86 -29 c-4 -8 -11 -15 -16 -15 -6 0
-5 6 2 15 7 8 14 15 16 15 2 0 1 -7 -2 -15z m31 -5 c3 -5 1 -10 -4 -10 -6 0
-11 5 -11 10 0 6 2 10 4 10 3 0 8 -4 11 -10z m-56 -53 c8 -10 7 -14 -2 -14 -8
0 -14 6 -14 14 0 7 1 13 2 13 2 0 8 -6 14 -13z m-2 -47 c1 -11 -1 -22 -5 -24
-4 -2 -8 7 -8 20 -1 13 1 24 5 24 4 0 7 -9 8 -20z m-2 -309 c3 -5 2 -12 -3
-15 -5 -3 -9 1 -9 9 0 17 3 19 12 6z"/>
</g>
</svg>
