<svg width="22" height="22" viewBox="0 0 22 22" fill="none" xmlns="http://www.w3.org/2000/svg">
<path fill-rule="evenodd" clip-rule="evenodd" d="M2.68245 0.46065C2.38608 0.174402 1.98913 0.0160103 1.57711 0.0195907C1.16508 0.023171 0.770949 0.188436 0.479594 0.479792C0.188238 0.771148 0.0229727 1.16528 0.0193923 1.57731C0.0158119 1.98933 0.174203 2.38628 0.460452 2.68265L8.77802 11.0002L0.460452 19.3178C0.310364 19.4628 0.190649 19.6362 0.108292 19.8279C0.0259352 20.0196 -0.0174146 20.2258 -0.0192278 20.4345C-0.0210409 20.6431 0.0187189 20.85 0.0977317 21.0431C0.176745 21.2363 0.293428 21.4117 0.440974 21.5593C0.588519 21.7068 0.763972 21.8235 0.957095 21.9025C1.15022 21.9815 1.35714 22.0213 1.5658 22.0195C1.77445 22.0177 1.98065 21.9743 2.17237 21.892C2.36409 21.8096 2.53749 21.6899 2.68245 21.5398L11 13.2222L19.3176 21.5398C19.614 21.826 20.0109 21.9844 20.4229 21.9809C20.835 21.9773 21.2291 21.812 21.5205 21.5207C21.8118 21.2293 21.9771 20.8352 21.9807 20.4231C21.9842 20.0111 21.8258 19.6142 21.5396 19.3178L13.222 11.0002L21.5396 2.68265C21.8258 2.38628 21.9842 1.98933 21.9807 1.57731C21.9771 1.16528 21.8118 0.771148 21.5205 0.479792C21.2291 0.188436 20.835 0.023171 20.4229 0.0195907C20.0109 0.0160103 19.614 0.174402 19.3176 0.46065L11 8.77822L2.68245 0.46065Z" fill="black"/>
</svg>
