<svg width="280" height="30" viewBox="0 0 280 30" fill="none" xmlns="http://www.w3.org/2000/svg">
<g clip-path="url(#clip0_599_1693)">
<g filter="url(#filter0_ii_599_1693)">
<path d="M5.81145 0H22.3564C23.3017 0 24.2343 0.233839 25.0678 0.678641L26.4095 1.39541C27.3065 1.87579 28.0612 2.58494 28.5948 3.45166L29.1513 4.35398C29.7078 5.26137 30.0051 6.30348 30.0051 7.36847V23.8261C30.0051 24.7818 29.7662 25.7248 29.3114 26.5636L29.0827 26.9855C28.1577 28.6961 26.4298 29.8221 24.4909 29.9771C22.8189 30.1118 21.1723 29.5094 19.9805 28.3301L1.69998 10.2076C0.6124 9.12734 0 7.65822 0 6.12556V5.80785C0 4.17606 0.693715 2.61798 1.90835 1.52758L1.97188 1.46912C3.02897 0.523596 4.39607 0 5.81145 0Z" fill="#E3EDF7"/>
</g>
</g>
<g clip-path="url(#clip1_599_1693)">
<g filter="url(#filter1_ii_599_1693)">
<path d="M55.8115 0H72.3564C73.3017 0 74.2343 0.233839 75.0678 0.678641L76.4095 1.39541C77.3065 1.87579 78.0612 2.58494 78.5948 3.45166L79.1513 4.35398C79.7078 5.26137 80.0051 6.30348 80.0051 7.36847V23.8261C80.0051 24.7818 79.7662 25.7248 79.3114 26.5636L79.0827 26.9855C78.1577 28.6961 76.4298 29.8221 74.4909 29.9771C72.8189 30.1118 71.1723 29.5094 69.9805 28.3301L51.7 10.2076C50.6124 9.12734 50 7.65822 50 6.12556V5.80785C50 4.17606 50.6937 2.61798 51.9084 1.52758L51.9719 1.46912C53.029 0.523596 54.3961 0 55.8115 0Z" fill="#E3EDF7"/>
</g>
</g>
<g clip-path="url(#clip2_599_1693)">
<g filter="url(#filter2_ii_599_1693)">
<path d="M105.811 0H122.356C123.302 0 124.234 0.233839 125.068 0.678641L126.409 1.39541C127.306 1.87579 128.061 2.58494 128.595 3.45166L129.151 4.35398C129.708 5.26137 130.005 6.30348 130.005 7.36847V23.8261C130.005 24.7818 129.766 25.7248 129.311 26.5636L129.083 26.9855C128.158 28.6961 126.43 29.8221 124.491 29.9771C122.819 30.1118 121.172 29.5094 119.981 28.3301L101.7 10.2076C100.612 9.12734 100 7.65822 100 6.12556V5.80785C100 4.17606 100.694 2.61798 101.908 1.52758L101.972 1.46912C103.029 0.523596 104.396 0 105.811 0Z" fill="#E3EDF7"/>
</g>
</g>
<g clip-path="url(#clip3_599_1693)">
<g filter="url(#filter3_ii_599_1693)">
<path d="M155.811 0H172.356C173.302 0 174.234 0.233839 175.068 0.678641L176.409 1.39541C177.306 1.87579 178.061 2.58494 178.595 3.45166L179.151 4.35398C179.708 5.26137 180.005 6.30348 180.005 7.36847V23.8261C180.005 24.7818 179.766 25.7248 179.311 26.5636L179.083 26.9855C178.158 28.6961 176.43 29.8221 174.491 29.9771C172.819 30.1118 171.172 29.5094 169.981 28.3301L151.7 10.2076C150.612 9.12734 150 7.65822 150 6.12556V5.80785C150 4.17606 150.694 2.61798 151.908 1.52758L151.972 1.46912C153.029 0.523596 154.396 0 155.811 0Z" fill="#E3EDF7"/>
</g>
</g>
<g clip-path="url(#clip4_599_1693)">
<g filter="url(#filter4_ii_599_1693)">
<path d="M205.811 0H222.356C223.302 0 224.234 0.233839 225.068 0.678641L226.409 1.39541C227.306 1.87579 228.061 2.58494 228.595 3.45166L229.151 4.35398C229.708 5.26137 230.005 6.30348 230.005 7.36847V23.8261C230.005 24.7818 229.766 25.7248 229.311 26.5636L229.083 26.9855C228.158 28.6961 226.43 29.8221 224.491 29.9771C222.819 30.1118 221.172 29.5094 219.981 28.3301L201.7 10.2076C200.612 9.12734 200 7.65822 200 6.12556V5.80785C200 4.17606 200.694 2.61798 201.908 1.52758L201.972 1.46912C203.029 0.523596 204.396 0 205.811 0Z" fill="#E3EDF7"/>
</g>
</g>
<g clip-path="url(#clip5_599_1693)">
<g filter="url(#filter5_ii_599_1693)">
<path d="M255.811 0H272.356C273.302 0 274.234 0.233839 275.068 0.678641L276.409 1.39541C277.306 1.87579 278.061 2.58494 278.595 3.45166L279.151 4.35398C279.708 5.26137 280.005 6.30348 280.005 7.36847V23.8261C280.005 24.7818 279.766 25.7248 279.311 26.5636L279.083 26.9855C278.158 28.6961 276.43 29.8221 274.491 29.9771C272.819 30.1118 271.172 29.5094 269.981 28.3301L251.7 10.2076C250.612 9.12734 250 7.65822 250 6.12556V5.80785C250 4.17606 250.694 2.61798 251.908 1.52758L251.972 1.46912C253.029 0.523596 254.396 0 255.811 0Z" fill="#E3EDF7"/>
</g>
</g>
<defs>
<filter id="filter0_ii_599_1693" x="-3" y="-3" width="36.0051" height="35.9961" filterUnits="userSpaceOnUse" color-interpolation-filters="sRGB">
<feFlood flood-opacity="0" result="BackgroundImageFix"/>
<feBlend mode="normal" in="SourceGraphic" in2="BackgroundImageFix" result="shape"/>
<feColorMatrix in="SourceAlpha" type="matrix" values="0 0 0 0 0 0 0 0 0 0 0 0 0 0 0 0 0 0 127 0" result="hardAlpha"/>
<feOffset dx="3" dy="3"/>
<feGaussianBlur stdDeviation="3.5"/>
<feComposite in2="hardAlpha" operator="arithmetic" k2="-1" k3="1"/>
<feColorMatrix type="matrix" values="0 0 0 0 0.534167 0 0 0 0 0.645967 0 0 0 0 0.749167 0 0 0 0.48 0"/>
<feBlend mode="normal" in2="shape" result="effect1_innerShadow_599_1693"/>
<feColorMatrix in="SourceAlpha" type="matrix" values="0 0 0 0 0 0 0 0 0 0 0 0 0 0 0 0 0 0 127 0" result="hardAlpha"/>
<feOffset dx="-3" dy="-3"/>
<feGaussianBlur stdDeviation="3.5"/>
<feComposite in2="hardAlpha" operator="arithmetic" k2="-1" k3="1"/>
<feColorMatrix type="matrix" values="0 0 0 0 1 0 0 0 0 1 0 0 0 0 1 0 0 0 1 0"/>
<feBlend mode="normal" in2="effect1_innerShadow_599_1693" result="effect2_innerShadow_599_1693"/>
</filter>
<filter id="filter1_ii_599_1693" x="47" y="-3" width="36.0051" height="35.9961" filterUnits="userSpaceOnUse" color-interpolation-filters="sRGB">
<feFlood flood-opacity="0" result="BackgroundImageFix"/>
<feBlend mode="normal" in="SourceGraphic" in2="BackgroundImageFix" result="shape"/>
<feColorMatrix in="SourceAlpha" type="matrix" values="0 0 0 0 0 0 0 0 0 0 0 0 0 0 0 0 0 0 127 0" result="hardAlpha"/>
<feOffset dx="3" dy="3"/>
<feGaussianBlur stdDeviation="3.5"/>
<feComposite in2="hardAlpha" operator="arithmetic" k2="-1" k3="1"/>
<feColorMatrix type="matrix" values="0 0 0 0 0.534167 0 0 0 0 0.645967 0 0 0 0 0.749167 0 0 0 0.48 0"/>
<feBlend mode="normal" in2="shape" result="effect1_innerShadow_599_1693"/>
<feColorMatrix in="SourceAlpha" type="matrix" values="0 0 0 0 0 0 0 0 0 0 0 0 0 0 0 0 0 0 127 0" result="hardAlpha"/>
<feOffset dx="-3" dy="-3"/>
<feGaussianBlur stdDeviation="3.5"/>
<feComposite in2="hardAlpha" operator="arithmetic" k2="-1" k3="1"/>
<feColorMatrix type="matrix" values="0 0 0 0 1 0 0 0 0 1 0 0 0 0 1 0 0 0 1 0"/>
<feBlend mode="normal" in2="effect1_innerShadow_599_1693" result="effect2_innerShadow_599_1693"/>
</filter>
<filter id="filter2_ii_599_1693" x="97" y="-3" width="36.0051" height="35.9961" filterUnits="userSpaceOnUse" color-interpolation-filters="sRGB">
<feFlood flood-opacity="0" result="BackgroundImageFix"/>
<feBlend mode="normal" in="SourceGraphic" in2="BackgroundImageFix" result="shape"/>
<feColorMatrix in="SourceAlpha" type="matrix" values="0 0 0 0 0 0 0 0 0 0 0 0 0 0 0 0 0 0 127 0" result="hardAlpha"/>
<feOffset dx="3" dy="3"/>
<feGaussianBlur stdDeviation="3.5"/>
<feComposite in2="hardAlpha" operator="arithmetic" k2="-1" k3="1"/>
<feColorMatrix type="matrix" values="0 0 0 0 0.534167 0 0 0 0 0.645967 0 0 0 0 0.749167 0 0 0 0.48 0"/>
<feBlend mode="normal" in2="shape" result="effect1_innerShadow_599_1693"/>
<feColorMatrix in="SourceAlpha" type="matrix" values="0 0 0 0 0 0 0 0 0 0 0 0 0 0 0 0 0 0 127 0" result="hardAlpha"/>
<feOffset dx="-3" dy="-3"/>
<feGaussianBlur stdDeviation="3.5"/>
<feComposite in2="hardAlpha" operator="arithmetic" k2="-1" k3="1"/>
<feColorMatrix type="matrix" values="0 0 0 0 1 0 0 0 0 1 0 0 0 0 1 0 0 0 1 0"/>
<feBlend mode="normal" in2="effect1_innerShadow_599_1693" result="effect2_innerShadow_599_1693"/>
</filter>
<filter id="filter3_ii_599_1693" x="147" y="-3" width="36.0051" height="35.9961" filterUnits="userSpaceOnUse" color-interpolation-filters="sRGB">
<feFlood flood-opacity="0" result="BackgroundImageFix"/>
<feBlend mode="normal" in="SourceGraphic" in2="BackgroundImageFix" result="shape"/>
<feColorMatrix in="SourceAlpha" type="matrix" values="0 0 0 0 0 0 0 0 0 0 0 0 0 0 0 0 0 0 127 0" result="hardAlpha"/>
<feOffset dx="3" dy="3"/>
<feGaussianBlur stdDeviation="3.5"/>
<feComposite in2="hardAlpha" operator="arithmetic" k2="-1" k3="1"/>
<feColorMatrix type="matrix" values="0 0 0 0 0.534167 0 0 0 0 0.645967 0 0 0 0 0.749167 0 0 0 0.48 0"/>
<feBlend mode="normal" in2="shape" result="effect1_innerShadow_599_1693"/>
<feColorMatrix in="SourceAlpha" type="matrix" values="0 0 0 0 0 0 0 0 0 0 0 0 0 0 0 0 0 0 127 0" result="hardAlpha"/>
<feOffset dx="-3" dy="-3"/>
<feGaussianBlur stdDeviation="3.5"/>
<feComposite in2="hardAlpha" operator="arithmetic" k2="-1" k3="1"/>
<feColorMatrix type="matrix" values="0 0 0 0 1 0 0 0 0 1 0 0 0 0 1 0 0 0 1 0"/>
<feBlend mode="normal" in2="effect1_innerShadow_599_1693" result="effect2_innerShadow_599_1693"/>
</filter>
<filter id="filter4_ii_599_1693" x="197" y="-3" width="36.0051" height="35.9961" filterUnits="userSpaceOnUse" color-interpolation-filters="sRGB">
<feFlood flood-opacity="0" result="BackgroundImageFix"/>
<feBlend mode="normal" in="SourceGraphic" in2="BackgroundImageFix" result="shape"/>
<feColorMatrix in="SourceAlpha" type="matrix" values="0 0 0 0 0 0 0 0 0 0 0 0 0 0 0 0 0 0 127 0" result="hardAlpha"/>
<feOffset dx="3" dy="3"/>
<feGaussianBlur stdDeviation="3.5"/>
<feComposite in2="hardAlpha" operator="arithmetic" k2="-1" k3="1"/>
<feColorMatrix type="matrix" values="0 0 0 0 0.534167 0 0 0 0 0.645967 0 0 0 0 0.749167 0 0 0 0.48 0"/>
<feBlend mode="normal" in2="shape" result="effect1_innerShadow_599_1693"/>
<feColorMatrix in="SourceAlpha" type="matrix" values="0 0 0 0 0 0 0 0 0 0 0 0 0 0 0 0 0 0 127 0" result="hardAlpha"/>
<feOffset dx="-3" dy="-3"/>
<feGaussianBlur stdDeviation="3.5"/>
<feComposite in2="hardAlpha" operator="arithmetic" k2="-1" k3="1"/>
<feColorMatrix type="matrix" values="0 0 0 0 1 0 0 0 0 1 0 0 0 0 1 0 0 0 1 0"/>
<feBlend mode="normal" in2="effect1_innerShadow_599_1693" result="effect2_innerShadow_599_1693"/>
</filter>
<filter id="filter5_ii_599_1693" x="247" y="-3" width="36.0051" height="35.9961" filterUnits="userSpaceOnUse" color-interpolation-filters="sRGB">
<feFlood flood-opacity="0" result="BackgroundImageFix"/>
<feBlend mode="normal" in="SourceGraphic" in2="BackgroundImageFix" result="shape"/>
<feColorMatrix in="SourceAlpha" type="matrix" values="0 0 0 0 0 0 0 0 0 0 0 0 0 0 0 0 0 0 127 0" result="hardAlpha"/>
<feOffset dx="3" dy="3"/>
<feGaussianBlur stdDeviation="3.5"/>
<feComposite in2="hardAlpha" operator="arithmetic" k2="-1" k3="1"/>
<feColorMatrix type="matrix" values="0 0 0 0 0.534167 0 0 0 0 0.645967 0 0 0 0 0.749167 0 0 0 0.48 0"/>
<feBlend mode="normal" in2="shape" result="effect1_innerShadow_599_1693"/>
<feColorMatrix in="SourceAlpha" type="matrix" values="0 0 0 0 0 0 0 0 0 0 0 0 0 0 0 0 0 0 127 0" result="hardAlpha"/>
<feOffset dx="-3" dy="-3"/>
<feGaussianBlur stdDeviation="3.5"/>
<feComposite in2="hardAlpha" operator="arithmetic" k2="-1" k3="1"/>
<feColorMatrix type="matrix" values="0 0 0 0 1 0 0 0 0 1 0 0 0 0 1 0 0 0 1 0"/>
<feBlend mode="normal" in2="effect1_innerShadow_599_1693" result="effect2_innerShadow_599_1693"/>
</filter>
<clipPath id="clip0_599_1693">
<rect width="30" height="30" fill="white"/>
</clipPath>
<clipPath id="clip1_599_1693">
<rect width="30" height="30" fill="white" transform="translate(50)"/>
</clipPath>
<clipPath id="clip2_599_1693">
<rect width="30" height="30" fill="white" transform="translate(100)"/>
</clipPath>
<clipPath id="clip3_599_1693">
<rect width="30" height="30" fill="white" transform="translate(150)"/>
</clipPath>
<clipPath id="clip4_599_1693">
<rect width="30" height="30" fill="white" transform="translate(200)"/>
</clipPath>
<clipPath id="clip5_599_1693">
<rect width="30" height="30" fill="white" transform="translate(250)"/>
</clipPath>
</defs>
</svg>
